:SAMPLES-PER-SECOND 30
:FULLY-SPECIFIED
:DEGREES
171
root  -22.8549 7.2531 -16.2197 179.667 -2.23586 -167.234
RightUpLeg  -92.5359 -8.6852 12.8576
RightLeg  154.051 10.6196 -5.71134
RightFoot  -47.7407 4.04093 9.72668
RightToes  -6.70332 0.0079984 -0.0623073
Spine  20.2838 1.60286 5.99252
Spine1  34.4847 1.49794 11.0194
HEad  -80.705 1.6848 5.03935
LeftShoulder1  -1.94126e-019 -3.10601e-018 -2.51263e-017
LeftArm  16.3738 -61.8093 -110.632
LeftForeArm  36.0525 -62.1998 -17.4361
LeftHand  -1.31455 -2.17809 20.2274
RightShoulder  -4.96962e-017 0 -2.36833e-017
RightArm  -4.5146 68.7515 98.0204
RightForeArm  43.9868 60.9604 15.4846
RightHand  -0.426355 -2.43302 -16.4803
LeftUpLeg  -98.9523 12.9438 20.074
LeftLeg  159.163 -1.75689 0.804926
LeftFoot  -45.7923 -2.06185 -4.71806
LeftToes  -13.6256 2.03064e-006 1.83538e-008
172
root  -22.8165 7.20477 -16.264 179.387 -2.09161 -167.066
RightUpLeg  -92.1348 -8.48666 13.2194
RightLeg  154.207 10.7815 -5.76285
RightFoot  -48.1529 4.16525 9.91687
RightToes  -6.06854 0.00726525 -0.056514
Spine  20.5633 1.7015 6.07866
Spine1  34.8864 1.66487 11.1077
HEad  -81.7902 1.67712 5.48886
LeftShoulder1  -1.94126e-019 -3.10601e-018 -2.51263e-017
LeftArm  16.3711 -62.1221 -111.361
LeftForeArm  35.5815 -61.1756 -16.6385
LeftHand  -1.30918 -2.41485 19.5584
RightShoulder  -4.96962e-017 0 -2.36833e-017
RightArm  -4.41157 69.3255 98.3687
RightForeArm  43.9046 59.5663 14.5079
RightHand  -0.446478 -2.20865 -16.0739
LeftUpLeg  -98.4269 13.1733 20.8488
LeftLeg  159.363 -1.3939 0.633545
LeftFoot  -45.9788 -2.02285 -4.60421
LeftToes  -14.5213 2.03064e-006 1.83538e-008
173
root  -22.7955 7.14415 -16.3073 179.226 -2.10434 -167.052
RightUpLeg  -91.8734 -8.41805 13.321
RightLeg  154.442 10.913 -5.77748
RightFoot  -48.5628 4.29661 10.1192
RightToes  -5.61778 0.00651422 -0.0523854
Spine  20.7981 1.78942 6.21364
Spine1  35.2658 1.93528 11.1151
HEad  -82.6277 1.65601 5.70919
LeftShoulder1  -1.94126e-019 -3.10601e-018 -2.51263e-017
LeftArm  16.5758 -62.4866 -112.342
LeftForeArm  35.2014 -60.0267 -15.7982
LeftHand  -1.28484 -2.50137 19.002
RightShoulder  -4.96962e-017 0 -2.36833e-017
RightArm  -4.92134 69.8957 98.2918
RightForeArm  43.3931 58.2149 13.7
RightHand  -0.462989 -2.01594 -15.7427
LeftUpLeg  -98.1569 13.2224 21.2449
LeftLeg  159.568 -1.11539 0.502895
LeftFoot  -46.1999 -1.99073 -4.50358
LeftToes  -14.9312 2.03064e-006 1.83538e-008
174
root  -22.7723 7.08221 -16.3671 179.029 -2.08759 -167.028
RightUpLeg  -91.4839 -8.35841 13.4322
RightLeg  154.703 10.9993 -5.76021
RightFoot  -49.0582 4.41766 10.2755
RightToes  -5.34786 0.00574723 -0.0499073
Spine  21.1114 1.91215 6.35518
Spine1  35.7273 2.26972 11.123
HEad  -83.1278 1.49682 6.11645
LeftShoulder1  -1.94126e-019 -3.10601e-018 -2.51263e-017
LeftArm  17.1825 -62.9821 -113.602
LeftForeArm  34.7363 -58.4412 -14.7435
LeftHand  -1.23693 -2.76369 17.7451
RightShoulder  -4.96962e-017 0 -2.36833e-017
RightArm  -6.15196 70.5618 97.97
RightForeArm  42.9265 56.6091 12.8129
RightHand  -0.481032 -1.60557 -14.6285
LeftUpLeg  -97.7484 13.301 21.7142
LeftLeg  159.802 -0.818731 0.366092
LeftFoot  -46.4776 -1.98709 -4.46401
LeftToes  -15.4016 2.03064e-006 1.83538e-008
175
root  -22.7355 7.01026 -16.4456 178.79 -2.05983 -167.024
RightUpLeg  -90.9529 -8.36503 13.64
RightLeg  155.026 11.0885 -5.7285
RightFoot  -49.812 4.58652 10.4726
RightToes  -4.80052 0.00496617 -0.0448692
Spine  21.5505 2.00915 6.51116
Spine1  36.333 2.51463 11.1598
HEad  -83.3833 1.20949 6.53278
LeftShoulder1  -1.94126e-019 -3.10601e-018 -2.51263e-017
LeftArm  17.8495 -63.5988 -114.794
LeftForeArm  34.3976 -56.508 -13.5868
LeftHand  -1.23339 -2.90894 17.3977
RightShoulder  -4.96962e-017 0 -2.36833e-017
RightArm  -7.15722 71.3741 97.7375
RightForeArm  42.6177 54.5785 11.7807
RightHand  -0.500337 -1.24259 -13.9236
LeftUpLeg  -97.1485 13.4759 22.3791
LeftLeg  160.076 -0.321484 0.14408
LeftFoot  -46.9022 -1.962 -4.35942
LeftToes  -15.984 2.03064e-006 1.83538e-008
176
root  -22.7098 6.935 -16.5207 178.58 -2.04111 -166.949
RightUpLeg  -90.4074 -8.34854 13.7833
RightLeg  155.326 11.1388 -5.68143
RightFoot  -50.4935 4.72629 10.6167
RightToes  -4.68133 0.00417283 -0.0425553
Spine  22.0683 2.07105 6.69383
Spine1  37.0084 2.65921 11.2389
HEad  -83.4526 1.00863 6.8358
LeftShoulder1  -1.94126e-019 -3.10601e-018 -2.51263e-017
LeftArm  18.5543 -64.2573 -115.89
LeftForeArm  34.7912 -54.1376 -12.2691
LeftHand  -1.24505 -2.96144 17.4516
RightShoulder  -4.96962e-017 0 -2.36833e-017
RightArm  -7.84024 72.2687 97.7502
RightForeArm  43.4587 52.1029 10.5729
RightHand  -0.535846 -0.835236 -13.6209
LeftUpLeg  -96.5802 13.5682 23.0616
LeftLeg  160.367 0.138154 -0.0559989
LeftFoot  -47.4023 -1.97945 -4.34566
LeftToes  -16.4093 2.03064e-006 1.83538e-008
177
root  -22.682 6.85941 -16.5948 178.387 -1.97906 -166.905
RightUpLeg  -89.8689 -8.33402 13.9123
RightLeg  155.63 11.1352 -5.60506
RightFoot  -51.2133 4.85216 10.7178
RightToes  -4.56042 0.00336918 -0.0411156
Spine  22.6341 2.11978 6.84179
Spine1  37.7301 2.74998 11.2833
HEad  -83.5007 0.876221 7.14271
LeftShoulder1  -1.94126e-019 -3.10601e-018 -2.51263e-017
LeftArm  19.1641 -64.9743 -116.822
LeftForeArm  35.3483 -51.4112 -10.9396
LeftHand  -1.22437 -2.7706 17.5554
RightShoulder  -4.96962e-017 0 -2.36833e-017
RightArm  -8.35591 73.1485 97.9119
RightForeArm  46.1971 49.4818 9.3172
RightHand  -0.588713 -0.287353 -13.4074
LeftUpLeg  -95.9579 13.7318 23.7899
LeftLeg  160.653 0.703645 -0.295593
LeftFoot  -47.9285 -1.98093 -4.2934
LeftToes  -16.9615 2.03064e-006 1.83538e-008
178
root  -22.6555 6.77728 -16.6707 178.209 -1.86311 -166.845
RightUpLeg  -89.341 -8.29481 14.0523
RightLeg  155.948 11.0998 -5.50948
RightFoot  -51.9404 4.96805 10.7925
RightToes  -4.45817 0.00255713 -0.0403593
Spine  23.2263 2.1689 6.97745
Spine1  38.4635 2.78902 11.3535
HEad  -83.5378 0.735316 7.32324
LeftShoulder1  -1.94126e-019 -3.10601e-018 -2.51263e-017
LeftArm  19.7554 -65.7793 -117.789
LeftForeArm  34.9188 -48.0916 -9.61831
LeftHand  -1.22666 -2.72594 17.6804
RightShoulder  -4.96962e-017 0 -2.36833e-017
RightArm  -8.61574 74.0174 98.1767
RightForeArm  49.6471 46.5442 8.05592
RightHand  -0.644338 0.0680803 -13.7434
LeftUpLeg  -95.3097 13.9307 24.5831
LeftLeg  160.962 1.2907 -0.536923
LeftFoot  -48.4958 -1.99332 -4.26216
LeftToes  -17.3815 2.03064e-006 1.83538e-008
179
root  -22.625 6.69036 -16.7514 177.96 -1.69049 -166.748
RightUpLeg  -88.7185 -8.23879 14.2409
RightLeg  156.279 11.0442 -5.40147
RightFoot  -52.6913 5.08216 10.8549
RightToes  -4.51723 0.00173852 -0.040095
Spine  23.8498 2.2404 7.11559
Spine1  39.2668 2.87851 11.404
HEad  -83.396 0.653376 7.35802
LeftShoulder1  -1.94126e-019 -3.10601e-018 -2.51263e-017
LeftArm  20.1534 -66.5131 -118.858
LeftForeArm  34.4659 -44.6715 -8.43659
LeftHand  -1.19156 -2.66022 17.3226
RightShoulder  -4.96962e-017 0 -2.36833e-017
RightArm  -9.03781 74.8472 98.3904
RightForeArm  53.2196 43.2818 6.8395
RightHand  -0.684048 0.32765 -13.9436
LeftUpLeg  -94.4984 14.199 25.55
LeftLeg  161.296 2.00145 -0.820737
LeftFoot  -49.1122 -1.98217 -4.17504
LeftToes  -17.9835 2.03064e-006 1.83538e-008
180
root  -22.5963 6.58834 -16.8343 177.683 -1.46454 -166.59
RightUpLeg  -88.088 -8.13155 14.4677
RightLeg  156.625 11.0041 -5.29874
RightFoot  -53.3718 5.18756 10.9127
RightToes  -4.92366 0.000915199 -0.0401319
Spine  24.4761 2.32486 7.26339
Spine1  40.1024 3.01711 11.4234
HEad  -83.1062 0.646111 7.37486
LeftShoulder1  -1.94126e-019 -3.10601e-018 -2.51263e-017
LeftArm  20.6161 -67.3442 -119.67
LeftForeArm  33.8553 -41.0617 -7.34754
LeftHand  -1.139 -2.38613 17.1394
RightShoulder  -4.96962e-017 0 -2.36833e-017
RightArm  -9.48668 75.6318 98.6919
RightForeArm  55.36 39.6133 5.72512
RightHand  -0.697638 0.160401 -14.6297
LeftUpLeg  -93.6029 14.493 26.6982
LeftLeg  161.678 2.81392 -1.13318
LeftFoot  -49.7764 -1.95793 -4.05725
LeftToes  -18.6668 2.03064e-006 1.83538e-008
181
root  -22.5718 6.48078 -16.9123 177.448 -1.28223 -166.39
RightUpLeg  -87.5571 -8.09094 14.7536
RightLeg  156.997 10.9743 -5.19621
RightFoot  -54.0652 5.29381 10.9668
RightToes  -4.9138 8.91379e-005 -0.0402789
Spine  25.0012 2.41495 7.44162
Spine1  40.8032 3.17085 11.4951
HEad  -82.7376 0.588625 7.44949
LeftShoulder1  -1.94126e-019 -3.10601e-018 -2.51263e-017
LeftArm  21.0587 -68.0394 -120.163
LeftForeArm  33.3551 -37.6042 -6.41009
LeftHand  -1.08171 -2.10355 16.8892
RightShoulder  -4.96962e-017 0 -2.36833e-017
RightArm  -10.8294 76.1997 98.2619
RightForeArm  56.5608 35.8956 4.75578
RightHand  -0.695729 -0.201432 -15.571
LeftUpLeg  -92.8987 14.739 27.8096
LeftLeg  162.079 3.53375 -1.39492
LeftFoot  -50.3443 -1.96088 -4.00939
LeftToes  -18.9158 2.03064e-006 1.83538e-008
